ISO-10303-21;
HEADER;
/* Generated by software containing ST-Developer
 * from STEP Tools, Inc. (www.steptools.com) 
 */
/* OPTION: using custom renumber hook */

FILE_DESCRIPTION(
/* description */ ('STEP AP242',
'CAx-IF Rec.Pracs.---Representation and Presentation of Product Manufa
cturing Information (PMI)---4.0---2014-10-13',
'CAx-IF Rec.Pracs.---3D Tessellated Geometry---0.4---2014-09-14','2;1'),

/* implementation_level */ '2;1');

FILE_NAME(
/* name */ '66a4e47d9bc08414646f046d',
/* time_stamp */ '2024-07-27T12:13:50Z',
/* author */ (''),
/* organization */ (''),
/* preprocessor_version */ 'ST-DEVELOPER v20',
/* originating_system */ '  ',
/* authorisation */ '  ');

FILE_SCHEMA (('AP242_MANAGED_MODEL_BASED_3D_ENGINEERING_MIM_LF { 1 0 10303 442 1 1 4 }'));
ENDSEC;

DATA;
#10=SHAPE_REPRESENTATION_RELATIONSHIP('','',#623,#11);
#11=ADVANCED_BREP_SHAPE_REPRESENTATION('',(#621),#1127);
#12=ELLIPSE('',#684,0.000353553390593273,0.00035);
#13=ELLIPSE('',#685,0.000353553390593274,0.00035);
#14=ELLIPSE('',#687,0.000353553390593274,0.00035);
#15=ELLIPSE('',#689,0.000353553390593273,0.00035);
#16=ELLIPSE('',#690,0.000353553390593273,0.00035);
#17=ELLIPSE('',#691,0.000353553390593274,0.00035);
#18=ELLIPSE('',#693,0.000353553390593273,0.00035);
#19=ELLIPSE('',#695,0.000353553390593274,0.00035);
#20=(
BOUNDED_SURFACE()
B_SPLINE_SURFACE(3,2,((#1042,#1043,#1044),(#1045,#1046,#1047),(#1048,#1049,
#1050),(#1051,#1052,#1053),(#1054,#1055,#1056),(#1057,#1058,#1059)),
 .UNSPECIFIED.,.F.,.F.,.F.)
B_SPLINE_SURFACE_WITH_KNOTS((4,1,1,4),(3,3),(6.28318530717959,6.67588438887831,
7.06858347057703,7.85398163397448),(0.,1.),.UNSPECIFIED.)
GEOMETRIC_REPRESENTATION_ITEM()
RATIONAL_B_SPLINE_SURFACE(((1.,0.707106781186548,1.),(1.,0.707108075536012,
1.),(1.,0.746331598777971,1.),(1.,0.911046813826932,1.),(1.,0.999999768591362,
1.),(1.,1.,1.)))
REPRESENTATION_ITEM('')
SURFACE()
);
#21=(
BOUNDED_SURFACE()
B_SPLINE_SURFACE(3,2,((#1066,#1067,#1068),(#1069,#1070,#1071),(#1072,#1073,
#1074),(#1075,#1076,#1077),(#1078,#1079,#1080),(#1081,#1082,#1083)),
 .UNSPECIFIED.,.F.,.F.,.F.)
B_SPLINE_SURFACE_WITH_KNOTS((4,1,1,4),(3,3),(6.28318530717959,6.67588438887831,
7.06858347057703,7.85398163397448),(0.,1.),.UNSPECIFIED.)
GEOMETRIC_REPRESENTATION_ITEM()
RATIONAL_B_SPLINE_SURFACE(((1.,0.707106781186548,1.),(1.,0.707108075536012,
1.),(1.,0.746331598777972,1.),(1.,0.911046813826935,1.),(1.,0.999999768591362,
1.),(1.,1.,1.)))
REPRESENTATION_ITEM('')
SURFACE()
);
#22=(
BOUNDED_SURFACE()
B_SPLINE_SURFACE(3,2,((#1085,#1086,#1087),(#1088,#1089,#1090),(#1091,#1092,
#1093),(#1094,#1095,#1096),(#1097,#1098,#1099),(#1100,#1101,#1102)),
 .UNSPECIFIED.,.F.,.F.,.F.)
B_SPLINE_SURFACE_WITH_KNOTS((4,1,1,4),(3,3),(6.28318530717959,6.67588438887831,
7.06858347057703,7.85398163397448),(0.,1.),.UNSPECIFIED.)
GEOMETRIC_REPRESENTATION_ITEM()
RATIONAL_B_SPLINE_SURFACE(((1.,0.707106781186548,1.),(1.,0.707108075536012,
1.),(1.,0.746331598777971,1.),(1.,0.911046813826934,1.),(1.,0.999999768591362,
1.),(1.,1.,1.)))
REPRESENTATION_ITEM('')
SURFACE()
);
#23=(
BOUNDED_SURFACE()
B_SPLINE_SURFACE(3,2,((#1108,#1109,#1110),(#1111,#1112,#1113),(#1114,#1115,
#1116),(#1117,#1118,#1119),(#1120,#1121,#1122),(#1123,#1124,#1125)),
 .UNSPECIFIED.,.F.,.F.,.F.)
B_SPLINE_SURFACE_WITH_KNOTS((4,1,1,4),(3,3),(6.28318530717959,6.67588438887831,
7.06858347057703,7.85398163397448),(0.,1.),.UNSPECIFIED.)
GEOMETRIC_REPRESENTATION_ITEM()
RATIONAL_B_SPLINE_SURFACE(((1.,0.707106781186548,1.),(1.,0.707108075536012,
1.),(1.,0.746331598777971,1.),(1.,0.911046813826932,1.),(1.,0.999999768591362,
1.),(1.,1.,1.)))
REPRESENTATION_ITEM('')
SURFACE()
);
#24=TOROIDAL_SURFACE('',#668,0.00035,5.E-5);
#25=TOROIDAL_SURFACE('',#675,0.00035,5.E-5);
#26=TOROIDAL_SURFACE('',#677,0.00035,5.E-5);
#27=TOROIDAL_SURFACE('',#683,0.00035,5.E-5);
#28=OVER_RIDING_STYLED_ITEM('',(#608),#588,#606);
#29=CYLINDRICAL_SURFACE('',#636,0.00035);
#30=CYLINDRICAL_SURFACE('',#639,0.00035);
#31=CYLINDRICAL_SURFACE('',#642,0.00035);
#32=CYLINDRICAL_SURFACE('',#645,0.00035);
#33=CYLINDRICAL_SURFACE('',#648,0.0003);
#34=CYLINDRICAL_SURFACE('',#652,0.0003);
#35=CYLINDRICAL_SURFACE('',#656,0.0003);
#36=CYLINDRICAL_SURFACE('',#660,0.00015);
#37=CYLINDRICAL_SURFACE('',#663,0.0003);
#38=CYLINDRICAL_SURFACE('',#671,5.E-5);
#39=CYLINDRICAL_SURFACE('',#673,5.E-5);
#40=CYLINDRICAL_SURFACE('',#679,5.E-5);
#41=CYLINDRICAL_SURFACE('',#681,5.E-5);
#42=CYLINDRICAL_SURFACE('',#686,0.00035);
#43=CYLINDRICAL_SURFACE('',#688,0.00035);
#44=CYLINDRICAL_SURFACE('',#692,0.00035);
#45=CYLINDRICAL_SURFACE('',#694,0.00035);
#46=CIRCLE('',#630,0.00035);
#47=CIRCLE('',#631,0.00035);
#48=CIRCLE('',#632,0.00035);
#49=CIRCLE('',#633,0.00035);
#50=CIRCLE('',#637,0.00035);
#51=CIRCLE('',#640,0.00035);
#52=CIRCLE('',#643,0.00035);
#53=CIRCLE('',#646,0.00035);
#54=CIRCLE('',#649,0.0003);
#55=CIRCLE('',#650,0.0003);
#56=CIRCLE('',#653,0.0003);
#57=CIRCLE('',#654,0.0003);
#58=CIRCLE('',#657,0.0003);
#59=CIRCLE('',#658,0.0003);
#60=CIRCLE('',#661,0.00015);
#61=CIRCLE('',#662,0.00015);
#62=CIRCLE('',#664,0.0003);
#63=CIRCLE('',#665,0.0003);
#64=CIRCLE('',#669,5.E-5);
#65=CIRCLE('',#670,5.E-5);
#66=CIRCLE('',#672,5.E-5);
#67=CIRCLE('',#674,5.E-5);
#68=CIRCLE('',#676,5.E-5);
#69=CIRCLE('',#678,5.E-5);
#70=CIRCLE('',#680,5.E-5);
#71=CIRCLE('',#682,5.E-5);
#72=ORIENTED_EDGE('',*,*,#236,.F.);
#73=ORIENTED_EDGE('',*,*,#237,.F.);
#74=ORIENTED_EDGE('',*,*,#238,.T.);
#75=ORIENTED_EDGE('',*,*,#239,.T.);
#76=ORIENTED_EDGE('',*,*,#240,.T.);
#77=ORIENTED_EDGE('',*,*,#241,.F.);
#78=ORIENTED_EDGE('',*,*,#242,.F.);
#79=ORIENTED_EDGE('',*,*,#237,.T.);
#80=ORIENTED_EDGE('',*,*,#243,.T.);
#81=ORIENTED_EDGE('',*,*,#244,.F.);
#82=ORIENTED_EDGE('',*,*,#245,.F.);
#83=ORIENTED_EDGE('',*,*,#241,.T.);
#84=ORIENTED_EDGE('',*,*,#246,.F.);
#85=ORIENTED_EDGE('',*,*,#239,.F.);
#86=ORIENTED_EDGE('',*,*,#247,.T.);
#87=ORIENTED_EDGE('',*,*,#244,.T.);
#88=ORIENTED_EDGE('',*,*,#248,.F.);
#89=ORIENTED_EDGE('',*,*,#249,.T.);
#90=ORIENTED_EDGE('',*,*,#250,.F.);
#91=ORIENTED_EDGE('',*,*,#251,.F.);
#92=ORIENTED_EDGE('',*,*,#252,.F.);
#93=ORIENTED_EDGE('',*,*,#253,.F.);
#94=ORIENTED_EDGE('',*,*,#254,.F.);
#95=ORIENTED_EDGE('',*,*,#255,.T.);
#96=ORIENTED_EDGE('',*,*,#238,.F.);
#97=ORIENTED_EDGE('',*,*,#242,.T.);
#98=ORIENTED_EDGE('',*,*,#245,.T.);
#99=ORIENTED_EDGE('',*,*,#247,.F.);
#100=ORIENTED_EDGE('',*,*,#236,.T.);
#101=ORIENTED_EDGE('',*,*,#246,.T.);
#102=ORIENTED_EDGE('',*,*,#243,.F.);
#103=ORIENTED_EDGE('',*,*,#240,.F.);
#104=ORIENTED_EDGE('',*,*,#256,.T.);
#105=ORIENTED_EDGE('',*,*,#249,.F.);
#106=ORIENTED_EDGE('',*,*,#257,.F.);
#107=ORIENTED_EDGE('',*,*,#258,.T.);
#108=ORIENTED_EDGE('',*,*,#248,.T.);
#109=ORIENTED_EDGE('',*,*,#259,.F.);
#110=ORIENTED_EDGE('',*,*,#260,.F.);
#111=ORIENTED_EDGE('',*,*,#257,.T.);
#112=ORIENTED_EDGE('',*,*,#259,.T.);
#113=ORIENTED_EDGE('',*,*,#255,.F.);
#114=ORIENTED_EDGE('',*,*,#261,.F.);
#115=ORIENTED_EDGE('',*,*,#262,.T.);
#116=ORIENTED_EDGE('',*,*,#254,.T.);
#117=ORIENTED_EDGE('',*,*,#263,.F.);
#118=ORIENTED_EDGE('',*,*,#264,.F.);
#119=ORIENTED_EDGE('',*,*,#261,.T.);
#120=ORIENTED_EDGE('',*,*,#253,.T.);
#121=ORIENTED_EDGE('',*,*,#265,.F.);
#122=ORIENTED_EDGE('',*,*,#266,.F.);
#123=ORIENTED_EDGE('',*,*,#263,.T.);
#124=ORIENTED_EDGE('',*,*,#252,.T.);
#125=ORIENTED_EDGE('',*,*,#267,.F.);
#126=ORIENTED_EDGE('',*,*,#268,.F.);
#127=ORIENTED_EDGE('',*,*,#265,.T.);
#128=ORIENTED_EDGE('',*,*,#251,.T.);
#129=ORIENTED_EDGE('',*,*,#269,.F.);
#130=ORIENTED_EDGE('',*,*,#270,.F.);
#131=ORIENTED_EDGE('',*,*,#267,.T.);
#132=ORIENTED_EDGE('',*,*,#250,.T.);
#133=ORIENTED_EDGE('',*,*,#256,.F.);
#134=ORIENTED_EDGE('',*,*,#271,.F.);
#135=ORIENTED_EDGE('',*,*,#269,.T.);
#136=ORIENTED_EDGE('',*,*,#272,.F.);
#137=ORIENTED_EDGE('',*,*,#273,.T.);
#138=ORIENTED_EDGE('',*,*,#274,.T.);
#139=ORIENTED_EDGE('',*,*,#275,.T.);
#140=ORIENTED_EDGE('',*,*,#276,.F.);
#141=ORIENTED_EDGE('',*,*,#277,.T.);
#142=ORIENTED_EDGE('',*,*,#272,.T.);
#143=ORIENTED_EDGE('',*,*,#278,.T.);
#144=ORIENTED_EDGE('',*,*,#279,.F.);
#145=ORIENTED_EDGE('',*,*,#280,.T.);
#146=ORIENTED_EDGE('',*,*,#276,.T.);
#147=ORIENTED_EDGE('',*,*,#281,.T.);
#148=ORIENTED_EDGE('',*,*,#282,.F.);
#149=ORIENTED_EDGE('',*,*,#283,.T.);
#150=ORIENTED_EDGE('',*,*,#279,.T.);
#151=ORIENTED_EDGE('',*,*,#284,.T.);
#152=ORIENTED_EDGE('',*,*,#285,.F.);
#153=ORIENTED_EDGE('',*,*,#286,.T.);
#154=ORIENTED_EDGE('',*,*,#282,.T.);
#155=ORIENTED_EDGE('',*,*,#287,.T.);
#156=ORIENTED_EDGE('',*,*,#288,.F.);
#157=ORIENTED_EDGE('',*,*,#289,.T.);
#158=ORIENTED_EDGE('',*,*,#285,.T.);
#159=ORIENTED_EDGE('',*,*,#290,.T.);
#160=ORIENTED_EDGE('',*,*,#291,.F.);
#161=ORIENTED_EDGE('',*,*,#292,.T.);
#162=ORIENTED_EDGE('',*,*,#288,.T.);
#163=ORIENTED_EDGE('',*,*,#293,.T.);
#164=ORIENTED_EDGE('',*,*,#294,.F.);
#165=ORIENTED_EDGE('',*,*,#295,.T.);
#166=ORIENTED_EDGE('',*,*,#274,.F.);
#167=ORIENTED_EDGE('',*,*,#296,.T.);
#168=ORIENTED_EDGE('',*,*,#291,.T.);
#169=ORIENTED_EDGE('',*,*,#297,.T.);
#170=ORIENTED_EDGE('',*,*,#298,.T.);
#171=ORIENTED_EDGE('',*,*,#299,.T.);
#172=ORIENTED_EDGE('',*,*,#300,.T.);
#173=ORIENTED_EDGE('',*,*,#301,.T.);
#174=ORIENTED_EDGE('',*,*,#295,.F.);
#175=ORIENTED_EDGE('',*,*,#294,.T.);
#176=ORIENTED_EDGE('',*,*,#302,.F.);
#177=ORIENTED_EDGE('',*,*,#271,.T.);
#178=ORIENTED_EDGE('',*,*,#303,.F.);
#179=ORIENTED_EDGE('',*,*,#297,.F.);
#180=ORIENTED_EDGE('',*,*,#303,.T.);
#181=ORIENTED_EDGE('',*,*,#258,.F.);
#182=ORIENTED_EDGE('',*,*,#304,.F.);
#183=ORIENTED_EDGE('',*,*,#275,.F.);
#184=ORIENTED_EDGE('',*,*,#302,.T.);
#185=ORIENTED_EDGE('',*,*,#293,.F.);
#186=ORIENTED_EDGE('',*,*,#305,.F.);
#187=ORIENTED_EDGE('',*,*,#270,.T.);
#188=ORIENTED_EDGE('',*,*,#304,.T.);
#189=ORIENTED_EDGE('',*,*,#260,.T.);
#190=ORIENTED_EDGE('',*,*,#306,.F.);
#191=ORIENTED_EDGE('',*,*,#278,.F.);
#192=ORIENTED_EDGE('',*,*,#305,.T.);
#193=ORIENTED_EDGE('',*,*,#290,.F.);
#194=ORIENTED_EDGE('',*,*,#307,.F.);
#195=ORIENTED_EDGE('',*,*,#268,.T.);
#196=ORIENTED_EDGE('',*,*,#306,.T.);
#197=ORIENTED_EDGE('',*,*,#262,.F.);
#198=ORIENTED_EDGE('',*,*,#308,.F.);
#199=ORIENTED_EDGE('',*,*,#281,.F.);
#200=ORIENTED_EDGE('',*,*,#307,.T.);
#201=ORIENTED_EDGE('',*,*,#287,.F.);
#202=ORIENTED_EDGE('',*,*,#309,.F.);
#203=ORIENTED_EDGE('',*,*,#266,.T.);
#204=ORIENTED_EDGE('',*,*,#308,.T.);
#205=ORIENTED_EDGE('',*,*,#264,.T.);
#206=ORIENTED_EDGE('',*,*,#309,.T.);
#207=ORIENTED_EDGE('',*,*,#284,.F.);
#208=ORIENTED_EDGE('',*,*,#310,.F.);
#209=ORIENTED_EDGE('',*,*,#296,.F.);
#210=ORIENTED_EDGE('',*,*,#311,.F.);
#211=ORIENTED_EDGE('',*,*,#311,.T.);
#212=ORIENTED_EDGE('',*,*,#273,.F.);
#213=ORIENTED_EDGE('',*,*,#312,.F.);
#214=ORIENTED_EDGE('',*,*,#298,.F.);
#215=ORIENTED_EDGE('',*,*,#310,.T.);
#216=ORIENTED_EDGE('',*,*,#301,.F.);
#217=ORIENTED_EDGE('',*,*,#313,.F.);
#218=ORIENTED_EDGE('',*,*,#292,.F.);
#219=ORIENTED_EDGE('',*,*,#312,.T.);
#220=ORIENTED_EDGE('',*,*,#277,.F.);
#221=ORIENTED_EDGE('',*,*,#314,.F.);
#222=ORIENTED_EDGE('',*,*,#289,.F.);
#223=ORIENTED_EDGE('',*,*,#313,.T.);
#224=ORIENTED_EDGE('',*,*,#315,.F.);
#225=ORIENTED_EDGE('',*,*,#314,.T.);
#226=ORIENTED_EDGE('',*,*,#280,.F.);
#227=ORIENTED_EDGE('',*,*,#316,.F.);
#228=ORIENTED_EDGE('',*,*,#299,.F.);
#229=ORIENTED_EDGE('',*,*,#315,.T.);
#230=ORIENTED_EDGE('',*,*,#300,.F.);
#231=ORIENTED_EDGE('',*,*,#317,.F.);
#232=ORIENTED_EDGE('',*,*,#286,.F.);
#233=ORIENTED_EDGE('',*,*,#283,.F.);
#234=ORIENTED_EDGE('',*,*,#317,.T.);
#235=ORIENTED_EDGE('',*,*,#316,.T.);
#236=EDGE_CURVE('',#318,#319,#364,.T.);
#237=EDGE_CURVE('',#320,#318,#365,.T.);
#238=EDGE_CURVE('',#320,#321,#366,.T.);
#239=EDGE_CURVE('',#321,#319,#367,.T.);
#240=EDGE_CURVE('',#318,#322,#368,.T.);
#241=EDGE_CURVE('',#323,#322,#369,.T.);
#242=EDGE_CURVE('',#320,#323,#370,.T.);
#243=EDGE_CURVE('',#322,#324,#371,.T.);
#244=EDGE_CURVE('',#325,#324,#372,.T.);
#245=EDGE_CURVE('',#323,#325,#373,.T.);
#246=EDGE_CURVE('',#319,#324,#374,.T.);
#247=EDGE_CURVE('',#321,#325,#375,.T.);
#248=EDGE_CURVE('',#326,#327,#46,.T.);
#249=EDGE_CURVE('',#326,#328,#376,.T.);
#250=EDGE_CURVE('',#329,#328,#47,.T.);
#251=EDGE_CURVE('',#330,#329,#377,.T.);
#252=EDGE_CURVE('',#331,#330,#48,.T.);
#253=EDGE_CURVE('',#332,#331,#378,.T.);
#254=EDGE_CURVE('',#333,#332,#49,.T.);
#255=EDGE_CURVE('',#333,#327,#379,.T.);
#256=EDGE_CURVE('',#334,#328,#380,.T.);
#257=EDGE_CURVE('',#335,#326,#381,.T.);
#258=EDGE_CURVE('',#335,#334,#382,.T.);
#259=EDGE_CURVE('',#336,#327,#383,.T.);
#260=EDGE_CURVE('',#335,#336,#50,.T.);
#261=EDGE_CURVE('',#337,#333,#384,.T.);
#262=EDGE_CURVE('',#337,#336,#385,.T.);
#263=EDGE_CURVE('',#338,#332,#386,.T.);
#264=EDGE_CURVE('',#337,#338,#51,.T.);
#265=EDGE_CURVE('',#339,#331,#387,.T.);
#266=EDGE_CURVE('',#338,#339,#388,.T.);
#267=EDGE_CURVE('',#340,#330,#389,.T.);
#268=EDGE_CURVE('',#339,#340,#52,.T.);
#269=EDGE_CURVE('',#341,#329,#390,.T.);
#270=EDGE_CURVE('',#340,#341,#391,.T.);
#271=EDGE_CURVE('',#341,#334,#53,.T.);
#272=EDGE_CURVE('',#342,#343,#392,.T.);
#273=EDGE_CURVE('',#342,#344,#393,.T.);
#274=EDGE_CURVE('',#344,#345,#394,.T.);
#275=EDGE_CURVE('',#345,#343,#395,.F.);
#276=EDGE_CURVE('',#346,#347,#396,.T.);
#277=EDGE_CURVE('',#346,#342,#54,.T.);
#278=EDGE_CURVE('',#343,#347,#55,.T.);
#279=EDGE_CURVE('',#348,#349,#397,.T.);
#280=EDGE_CURVE('',#348,#346,#398,.T.);
#281=EDGE_CURVE('',#347,#349,#399,.F.);
#282=EDGE_CURVE('',#350,#351,#400,.T.);
#283=EDGE_CURVE('',#350,#348,#56,.T.);
#284=EDGE_CURVE('',#349,#351,#57,.T.);
#285=EDGE_CURVE('',#352,#353,#401,.T.);
#286=EDGE_CURVE('',#352,#350,#402,.F.);
#287=EDGE_CURVE('',#351,#353,#403,.T.);
#288=EDGE_CURVE('',#354,#355,#404,.T.);
#289=EDGE_CURVE('',#354,#352,#58,.T.);
#290=EDGE_CURVE('',#353,#355,#59,.T.);
#291=EDGE_CURVE('',#356,#357,#405,.T.);
#292=EDGE_CURVE('',#356,#354,#406,.F.);
#293=EDGE_CURVE('',#355,#357,#407,.T.);
#294=EDGE_CURVE('',#358,#358,#60,.T.);
#295=EDGE_CURVE('',#359,#359,#61,.T.);
#296=EDGE_CURVE('',#344,#356,#62,.T.);
#297=EDGE_CURVE('',#357,#345,#63,.T.);
#298=EDGE_CURVE('',#360,#361,#408,.F.);
#299=EDGE_CURVE('',#361,#362,#409,.F.);
#300=EDGE_CURVE('',#362,#363,#410,.T.);
#301=EDGE_CURVE('',#363,#360,#411,.T.);
#302=EDGE_CURVE('',#341,#357,#64,.T.);
#303=EDGE_CURVE('',#345,#334,#65,.T.);
#304=EDGE_CURVE('',#343,#335,#66,.T.);
#305=EDGE_CURVE('',#340,#355,#67,.T.);
#306=EDGE_CURVE('',#347,#336,#68,.T.);
#307=EDGE_CURVE('',#339,#353,#69,.T.);
#308=EDGE_CURVE('',#349,#337,#70,.T.);
#309=EDGE_CURVE('',#338,#351,#71,.T.);
#310=EDGE_CURVE('',#356,#360,#12,.F.);
#311=EDGE_CURVE('',#360,#344,#13,.T.);
#312=EDGE_CURVE('',#361,#342,#14,.T.);
#313=EDGE_CURVE('',#354,#363,#15,.F.);
#314=EDGE_CURVE('',#361,#346,#16,.T.);
#315=EDGE_CURVE('',#352,#363,#17,.F.);
#316=EDGE_CURVE('',#362,#348,#18,.T.);
#317=EDGE_CURVE('',#350,#362,#19,.F.);
#318=VERTEX_POINT('',#891);
#319=VERTEX_POINT('',#892);
#320=VERTEX_POINT('',#894);
#321=VERTEX_POINT('',#896);
#322=VERTEX_POINT('',#900);
#323=VERTEX_POINT('',#902);
#324=VERTEX_POINT('',#906);
#325=VERTEX_POINT('',#908);
#326=VERTEX_POINT('',#915);
#327=VERTEX_POINT('',#916);
#328=VERTEX_POINT('',#918);
#329=VERTEX_POINT('',#920);
#330=VERTEX_POINT('',#922);
#331=VERTEX_POINT('',#924);
#332=VERTEX_POINT('',#926);
#333=VERTEX_POINT('',#928);
#334=VERTEX_POINT('',#933);
#335=VERTEX_POINT('',#935);
#336=VERTEX_POINT('',#939);
#337=VERTEX_POINT('',#943);
#338=VERTEX_POINT('',#947);
#339=VERTEX_POINT('',#951);
#340=VERTEX_POINT('',#955);
#341=VERTEX_POINT('',#959);
#342=VERTEX_POINT('',#965);
#343=VERTEX_POINT('',#966);
#344=VERTEX_POINT('',#968);
#345=VERTEX_POINT('',#970);
#346=VERTEX_POINT('',#974);
#347=VERTEX_POINT('',#975);
#348=VERTEX_POINT('',#980);
#349=VERTEX_POINT('',#981);
#350=VERTEX_POINT('',#986);
#351=VERTEX_POINT('',#987);
#352=VERTEX_POINT('',#992);
#353=VERTEX_POINT('',#993);
#354=VERTEX_POINT('',#998);
#355=VERTEX_POINT('',#999);
#356=VERTEX_POINT('',#1004);
#357=VERTEX_POINT('',#1005);
#358=VERTEX_POINT('',#1010);
#359=VERTEX_POINT('',#1012);
#360=VERTEX_POINT('',#1018);
#361=VERTEX_POINT('',#1019);
#362=VERTEX_POINT('',#1021);
#363=VERTEX_POINT('',#1023);
#364=LINE('',#890,#412);
#365=LINE('',#893,#413);
#366=LINE('',#895,#414);
#367=LINE('',#897,#415);
#368=LINE('',#899,#416);
#369=LINE('',#901,#417);
#370=LINE('',#903,#418);
#371=LINE('',#905,#419);
#372=LINE('',#907,#420);
#373=LINE('',#909,#421);
#374=LINE('',#911,#422);
#375=LINE('',#912,#423);
#376=LINE('',#917,#424);
#377=LINE('',#921,#425);
#378=LINE('',#925,#426);
#379=LINE('',#929,#427);
#380=LINE('',#932,#428);
#381=LINE('',#934,#429);
#382=LINE('',#936,#430);
#383=LINE('',#938,#431);
#384=LINE('',#942,#432);
#385=LINE('',#944,#433);
#386=LINE('',#946,#434);
#387=LINE('',#950,#435);
#388=LINE('',#952,#436);
#389=LINE('',#954,#437);
#390=LINE('',#958,#438);
#391=LINE('',#960,#439);
#392=LINE('',#964,#440);
#393=LINE('',#967,#441);
#394=LINE('',#969,#442);
#395=LINE('',#971,#443);
#396=LINE('',#973,#444);
#397=LINE('',#979,#445);
#398=LINE('',#982,#446);
#399=LINE('',#983,#447);
#400=LINE('',#985,#448);
#401=LINE('',#991,#449);
#402=LINE('',#994,#450);
#403=LINE('',#995,#451);
#404=LINE('',#997,#452);
#405=LINE('',#1003,#453);
#406=LINE('',#1006,#454);
#407=LINE('',#1007,#455);
#408=LINE('',#1017,#456);
#409=LINE('',#1020,#457);
#410=LINE('',#1022,#458);
#411=LINE('',#1024,#459);
#412=VECTOR('',#700,1.);
#413=VECTOR('',#701,1.);
#414=VECTOR('',#702,1.);
#415=VECTOR('',#703,1.);
#416=VECTOR('',#706,1.);
#417=VECTOR('',#707,1.);
#418=VECTOR('',#708,1.);
#419=VECTOR('',#711,1.);
#420=VECTOR('',#712,1.);
#421=VECTOR('',#713,1.);
#422=VECTOR('',#716,1.);
#423=VECTOR('',#717,1.);
#424=VECTOR('',#722,1.);
#425=VECTOR('',#725,1.);
#426=VECTOR('',#728,1.);
#427=VECTOR('',#731,1.);
#428=VECTOR('',#736,1.);
#429=VECTOR('',#737,1.);
#430=VECTOR('',#738,1.);
#431=VECTOR('',#741,1.);
#432=VECTOR('',#746,1.);
#433=VECTOR('',#747,1.);
#434=VECTOR('',#750,1.);
#435=VECTOR('',#755,1.);
#436=VECTOR('',#756,1.);
#437=VECTOR('',#759,1.);
#438=VECTOR('',#764,1.);
#439=VECTOR('',#765,1.);
#440=VECTOR('',#772,1.);
#441=VECTOR('',#773,1.);
#442=VECTOR('',#774,1.);
#443=VECTOR('',#775,1.);
#444=VECTOR('',#778,1.);
#445=VECTOR('',#785,1.);
#446=VECTOR('',#786,1.);
#447=VECTOR('',#787,1.);
#448=VECTOR('',#790,1.);
#449=VECTOR('',#797,1.);
#450=VECTOR('',#798,1.);
#451=VECTOR('',#799,1.);
#452=VECTOR('',#802,1.);
#453=VECTOR('',#809,1.);
#454=VECTOR('',#810,1.);
#455=VECTOR('',#811,1.);
#456=VECTOR('',#826,1.);
#457=VECTOR('',#827,1.);
#458=VECTOR('',#828,1.);
#459=VECTOR('',#829,1.);
#460=EDGE_LOOP('',(#72,#73,#74,#75));
#461=EDGE_LOOP('',(#76,#77,#78,#79));
#462=EDGE_LOOP('',(#80,#81,#82,#83));
#463=EDGE_LOOP('',(#84,#85,#86,#87));
#464=EDGE_LOOP('',(#88,#89,#90,#91,#92,#93,#94,#95));
#465=EDGE_LOOP('',(#96,#97,#98,#99));
#466=EDGE_LOOP('',(#100,#101,#102,#103));
#467=EDGE_LOOP('',(#104,#105,#106,#107));
#468=EDGE_LOOP('',(#108,#109,#110,#111));
#469=EDGE_LOOP('',(#112,#113,#114,#115));
#470=EDGE_LOOP('',(#116,#117,#118,#119));
#471=EDGE_LOOP('',(#120,#121,#122,#123));
#472=EDGE_LOOP('',(#124,#125,#126,#127));
#473=EDGE_LOOP('',(#128,#129,#130,#131));
#474=EDGE_LOOP('',(#132,#133,#134,#135));
#475=EDGE_LOOP('',(#136,#137,#138,#139));
#476=EDGE_LOOP('',(#140,#141,#142,#143));
#477=EDGE_LOOP('',(#144,#145,#146,#147));
#478=EDGE_LOOP('',(#148,#149,#150,#151));
#479=EDGE_LOOP('',(#152,#153,#154,#155));
#480=EDGE_LOOP('',(#156,#157,#158,#159));
#481=EDGE_LOOP('',(#160,#161,#162,#163));
#482=EDGE_LOOP('',(#164));
#483=EDGE_LOOP('',(#165));
#484=EDGE_LOOP('',(#166,#167,#168,#169));
#485=EDGE_LOOP('',(#170,#171,#172,#173));
#486=EDGE_LOOP('',(#174));
#487=EDGE_LOOP('',(#175));
#488=EDGE_LOOP('',(#176,#177,#178,#179));
#489=EDGE_LOOP('',(#180,#181,#182,#183));
#490=EDGE_LOOP('',(#184,#185,#186,#187));
#491=EDGE_LOOP('',(#188,#189,#190,#191));
#492=EDGE_LOOP('',(#192,#193,#194,#195));
#493=EDGE_LOOP('',(#196,#197,#198,#199));
#494=EDGE_LOOP('',(#200,#201,#202,#203));
#495=EDGE_LOOP('',(#204,#205,#206,#207));
#496=EDGE_LOOP('',(#208,#209,#210));
#497=EDGE_LOOP('',(#211,#212,#213,#214));
#498=EDGE_LOOP('',(#215,#216,#217,#218));
#499=EDGE_LOOP('',(#219,#220,#221));
#500=EDGE_LOOP('',(#222,#223,#224));
#501=EDGE_LOOP('',(#225,#226,#227,#228));
#502=EDGE_LOOP('',(#229,#230,#231,#232));
#503=EDGE_LOOP('',(#233,#234,#235));
#504=FACE_BOUND('',#460,.T.);
#505=FACE_BOUND('',#461,.T.);
#506=FACE_BOUND('',#462,.T.);
#507=FACE_BOUND('',#463,.T.);
#508=FACE_BOUND('',#464,.T.);
#509=FACE_BOUND('',#465,.T.);
#510=FACE_BOUND('',#466,.T.);
#511=FACE_BOUND('',#467,.T.);
#512=FACE_BOUND('',#468,.T.);
#513=FACE_BOUND('',#469,.T.);
#514=FACE_BOUND('',#470,.T.);
#515=FACE_BOUND('',#471,.T.);
#516=FACE_BOUND('',#472,.T.);
#517=FACE_BOUND('',#473,.T.);
#518=FACE_BOUND('',#474,.T.);
#519=FACE_BOUND('',#475,.T.);
#520=FACE_BOUND('',#476,.T.);
#521=FACE_BOUND('',#477,.T.);
#522=FACE_BOUND('',#478,.T.);
#523=FACE_BOUND('',#479,.T.);
#524=FACE_BOUND('',#480,.T.);
#525=FACE_BOUND('',#481,.T.);
#526=FACE_BOUND('',#482,.T.);
#527=FACE_BOUND('',#483,.T.);
#528=FACE_BOUND('',#484,.T.);
#529=FACE_BOUND('',#485,.T.);
#530=FACE_BOUND('',#486,.T.);
#531=FACE_BOUND('',#487,.T.);
#532=FACE_BOUND('',#488,.T.);
#533=FACE_BOUND('',#489,.T.);
#534=FACE_BOUND('',#490,.T.);
#535=FACE_BOUND('',#491,.T.);
#536=FACE_BOUND('',#492,.T.);
#537=FACE_BOUND('',#493,.T.);
#538=FACE_BOUND('',#494,.T.);
#539=FACE_BOUND('',#495,.T.);
#540=FACE_BOUND('',#496,.T.);
#541=FACE_BOUND('',#497,.T.);
#542=FACE_BOUND('',#498,.T.);
#543=FACE_BOUND('',#499,.T.);
#544=FACE_BOUND('',#500,.T.);
#545=FACE_BOUND('',#501,.T.);
#546=FACE_BOUND('',#502,.T.);
#547=FACE_BOUND('',#503,.T.);
#548=PLANE('',#625);
#549=PLANE('',#626);
#550=PLANE('',#627);
#551=PLANE('',#628);
#552=PLANE('',#629);
#553=PLANE('',#634);
#554=PLANE('',#635);
#555=PLANE('',#638);
#556=PLANE('',#641);
#557=PLANE('',#644);
#558=PLANE('',#647);
#559=PLANE('',#651);
#560=PLANE('',#655);
#561=PLANE('',#659);
#562=PLANE('',#666);
#563=PLANE('',#667);
#564=ADVANCED_FACE('',(#504),#548,.T.);
#565=ADVANCED_FACE('',(#505),#549,.F.);
#566=ADVANCED_FACE('',(#506),#550,.F.);
#567=ADVANCED_FACE('',(#507),#551,.T.);
#568=ADVANCED_FACE('',(#508,#509),#552,.T.);
#569=ADVANCED_FACE('',(#510),#553,.F.);
#570=ADVANCED_FACE('',(#511),#554,.T.);
#571=ADVANCED_FACE('',(#512),#29,.T.);
#572=ADVANCED_FACE('',(#513),#555,.T.);
#573=ADVANCED_FACE('',(#514),#30,.T.);
#574=ADVANCED_FACE('',(#515),#556,.F.);
#575=ADVANCED_FACE('',(#516),#31,.T.);
#576=ADVANCED_FACE('',(#517),#557,.F.);
#577=ADVANCED_FACE('',(#518),#32,.T.);
#578=ADVANCED_FACE('',(#519),#558,.T.);
#579=ADVANCED_FACE('',(#520),#33,.T.);
#580=ADVANCED_FACE('',(#521),#559,.T.);
#581=ADVANCED_FACE('',(#522),#34,.T.);
#582=ADVANCED_FACE('',(#523),#560,.F.);
#583=ADVANCED_FACE('',(#524),#35,.T.);
#584=ADVANCED_FACE('',(#525),#561,.F.);
#585=ADVANCED_FACE('',(#526,#527),#36,.F.);
#586=ADVANCED_FACE('',(#528),#37,.T.);
#587=ADVANCED_FACE('',(#529,#530),#562,.T.);
#588=ADVANCED_FACE('',(#531),#563,.T.);
#589=ADVANCED_FACE('',(#532),#24,.F.);
#590=ADVANCED_FACE('',(#533),#38,.F.);
#591=ADVANCED_FACE('',(#534),#39,.F.);
#592=ADVANCED_FACE('',(#535),#25,.F.);
#593=ADVANCED_FACE('',(#536),#26,.F.);
#594=ADVANCED_FACE('',(#537),#40,.F.);
#595=ADVANCED_FACE('',(#538),#41,.F.);
#596=ADVANCED_FACE('',(#539),#27,.F.);
#597=ADVANCED_FACE('',(#540),#20,.T.);
#598=ADVANCED_FACE('',(#541),#42,.T.);
#599=ADVANCED_FACE('',(#542),#43,.T.);
#600=ADVANCED_FACE('',(#543),#21,.T.);
#601=ADVANCED_FACE('',(#544),#22,.T.);
#602=ADVANCED_FACE('',(#545),#44,.T.);
#603=ADVANCED_FACE('',(#546),#45,.T.);
#604=ADVANCED_FACE('',(#547),#23,.T.);
#605=CLOSED_SHELL('',(#564,#565,#566,#567,#568,#569,#570,#571,#572,#573,
#574,#575,#576,#577,#578,#579,#580,#581,#582,#583,#584,#585,#586,#587,#588,
#589,#590,#591,#592,#593,#594,#595,#596,#597,#598,#599,#600,#601,#602,#603,
#604));
#606=STYLED_ITEM('',(#607),#621);
#607=PRESENTATION_STYLE_ASSIGNMENT((#609));
#608=PRESENTATION_STYLE_ASSIGNMENT((#610));
#609=SURFACE_STYLE_USAGE(.BOTH.,#611);
#610=SURFACE_STYLE_USAGE(.BOTH.,#612);
#611=SURFACE_SIDE_STYLE('',(#613));
#612=SURFACE_SIDE_STYLE('',(#614));
#613=SURFACE_STYLE_FILL_AREA(#615);
#614=SURFACE_STYLE_FILL_AREA(#616);
#615=FILL_AREA_STYLE('',(#617));
#616=FILL_AREA_STYLE('',(#618));
#617=FILL_AREA_STYLE_COLOUR('',#619);
#618=FILL_AREA_STYLE_COLOUR('',#620);
#619=COLOUR_RGB('',0.6,0.6,0.6);
#620=COLOUR_RGB('',0.301960784313725,0.301960784313725,0.301960784313725);
#621=MANIFOLD_SOLID_BREP('bmp280',#605);
#622=SHAPE_DEFINITION_REPRESENTATION(#1132,#623);
#623=SHAPE_REPRESENTATION('bmp280',(#624),#1127);
#624=AXIS2_PLACEMENT_3D('',#888,#696,#697);
#625=AXIS2_PLACEMENT_3D('',#889,#698,#699);
#626=AXIS2_PLACEMENT_3D('',#898,#704,#705);
#627=AXIS2_PLACEMENT_3D('',#904,#709,#710);
#628=AXIS2_PLACEMENT_3D('',#910,#714,#715);
#629=AXIS2_PLACEMENT_3D('',#913,#718,#719);
#630=AXIS2_PLACEMENT_3D('',#914,#720,#721);
#631=AXIS2_PLACEMENT_3D('',#919,#723,#724);
#632=AXIS2_PLACEMENT_3D('',#923,#726,#727);
#633=AXIS2_PLACEMENT_3D('',#927,#729,#730);
#634=AXIS2_PLACEMENT_3D('',#930,#732,#733);
#635=AXIS2_PLACEMENT_3D('',#931,#734,#735);
#636=AXIS2_PLACEMENT_3D('',#937,#739,#740);
#637=AXIS2_PLACEMENT_3D('',#940,#742,#743);
#638=AXIS2_PLACEMENT_3D('',#941,#744,#745);
#639=AXIS2_PLACEMENT_3D('',#945,#748,#749);
#640=AXIS2_PLACEMENT_3D('',#948,#751,#752);
#641=AXIS2_PLACEMENT_3D('',#949,#753,#754);
#642=AXIS2_PLACEMENT_3D('',#953,#757,#758);
#643=AXIS2_PLACEMENT_3D('',#956,#760,#761);
#644=AXIS2_PLACEMENT_3D('',#957,#762,#763);
#645=AXIS2_PLACEMENT_3D('',#961,#766,#767);
#646=AXIS2_PLACEMENT_3D('',#962,#768,#769);
#647=AXIS2_PLACEMENT_3D('',#963,#770,#771);
#648=AXIS2_PLACEMENT_3D('',#972,#776,#777);
#649=AXIS2_PLACEMENT_3D('',#976,#779,#780);
#650=AXIS2_PLACEMENT_3D('',#977,#781,#782);
#651=AXIS2_PLACEMENT_3D('',#978,#783,#784);
#652=AXIS2_PLACEMENT_3D('',#984,#788,#789);
#653=AXIS2_PLACEMENT_3D('',#988,#791,#792);
#654=AXIS2_PLACEMENT_3D('',#989,#793,#794);
#655=AXIS2_PLACEMENT_3D('',#990,#795,#796);
#656=AXIS2_PLACEMENT_3D('',#996,#800,#801);
#657=AXIS2_PLACEMENT_3D('',#1000,#803,#804);
#658=AXIS2_PLACEMENT_3D('',#1001,#805,#806);
#659=AXIS2_PLACEMENT_3D('',#1002,#807,#808);
#660=AXIS2_PLACEMENT_3D('',#1008,#812,#813);
#661=AXIS2_PLACEMENT_3D('',#1009,#814,#815);
#662=AXIS2_PLACEMENT_3D('',#1011,#816,#817);
#663=AXIS2_PLACEMENT_3D('',#1013,#818,#819);
#664=AXIS2_PLACEMENT_3D('',#1014,#820,#821);
#665=AXIS2_PLACEMENT_3D('',#1015,#822,#823);
#666=AXIS2_PLACEMENT_3D('',#1016,#824,#825);
#667=AXIS2_PLACEMENT_3D('',#1025,#830,#831);
#668=AXIS2_PLACEMENT_3D('',#1026,#832,#833);
#669=AXIS2_PLACEMENT_3D('',#1027,#834,#835);
#670=AXIS2_PLACEMENT_3D('',#1028,#836,#837);
#671=AXIS2_PLACEMENT_3D('',#1029,#838,#839);
#672=AXIS2_PLACEMENT_3D('',#1030,#840,#841);
#673=AXIS2_PLACEMENT_3D('',#1031,#842,#843);
#674=AXIS2_PLACEMENT_3D('',#1032,#844,#845);
#675=AXIS2_PLACEMENT_3D('',#1033,#846,#847);
#676=AXIS2_PLACEMENT_3D('',#1034,#848,#849);
#677=AXIS2_PLACEMENT_3D('',#1035,#850,#851);
#678=AXIS2_PLACEMENT_3D('',#1036,#852,#853);
#679=AXIS2_PLACEMENT_3D('',#1037,#854,#855);
#680=AXIS2_PLACEMENT_3D('',#1038,#856,#857);
#681=AXIS2_PLACEMENT_3D('',#1039,#858,#859);
#682=AXIS2_PLACEMENT_3D('',#1040,#860,#861);
#683=AXIS2_PLACEMENT_3D('',#1041,#862,#863);
#684=AXIS2_PLACEMENT_3D('',#1060,#864,#865);
#685=AXIS2_PLACEMENT_3D('',#1061,#866,#867);
#686=AXIS2_PLACEMENT_3D('',#1062,#868,#869);
#687=AXIS2_PLACEMENT_3D('',#1063,#870,#871);
#688=AXIS2_PLACEMENT_3D('',#1064,#872,#873);
#689=AXIS2_PLACEMENT_3D('',#1065,#874,#875);
#690=AXIS2_PLACEMENT_3D('',#1084,#876,#877);
#691=AXIS2_PLACEMENT_3D('',#1103,#878,#879);
#692=AXIS2_PLACEMENT_3D('',#1104,#880,#881);
#693=AXIS2_PLACEMENT_3D('',#1105,#882,#883);
#694=AXIS2_PLACEMENT_3D('',#1106,#884,#885);
#695=AXIS2_PLACEMENT_3D('',#1107,#886,#887);
#696=DIRECTION('',(0.,0.,1.));
#697=DIRECTION('',(1.,0.,0.));
#698=DIRECTION('',(0.,1.,0.));
#699=DIRECTION('',(0.,0.,1.));
#700=DIRECTION('',(1.,0.,0.));
#701=DIRECTION('',(0.,0.,-1.));
#702=DIRECTION('',(1.,0.,0.));
#703=DIRECTION('',(0.,0.,-1.));
#704=DIRECTION('',(1.,-2.16840434497101E-16,0.));
#705=DIRECTION('',(2.16840434497101E-16,1.,0.));
#706=DIRECTION('',(-2.16840434497101E-16,-1.,0.));
#707=DIRECTION('',(0.,0.,-1.));
#708=DIRECTION('',(-2.16840434497101E-16,-1.,0.));
#709=DIRECTION('',(0.,1.,0.));
#710=DIRECTION('',(0.,0.,1.));
#711=DIRECTION('',(1.,0.,0.));
#712=DIRECTION('',(0.,0.,-1.));
#713=DIRECTION('',(1.,0.,0.));
#714=DIRECTION('',(1.,-2.16840434497101E-16,0.));
#715=DIRECTION('',(2.16840434497101E-16,1.,0.));
#716=DIRECTION('',(-2.16840434497101E-16,-1.,0.));
#717=DIRECTION('',(-2.16840434497101E-16,-1.,0.));
#718=DIRECTION('',(0.,0.,1.));
#719=DIRECTION('',(1.,0.,0.));
#720=DIRECTION('',(0.,0.,1.));
#721=DIRECTION('',(1.,0.,0.));
#722=DIRECTION('',(-2.06514699521048E-16,-1.,0.));
#723=DIRECTION('',(0.,0.,1.));
#724=DIRECTION('',(1.,0.,0.));
#725=DIRECTION('',(1.,0.,0.));
#726=DIRECTION('',(0.,0.,1.));
#727=DIRECTION('',(1.,0.,0.));
#728=DIRECTION('',(-2.06514699521048E-16,-1.,0.));
#729=DIRECTION('',(0.,0.,1.));
#730=DIRECTION('',(1.,0.,0.));
#731=DIRECTION('',(1.,0.,0.));
#732=DIRECTION('',(0.,0.,1.));
#733=DIRECTION('',(1.,0.,0.));
#734=DIRECTION('',(1.,-2.06514699521048E-16,0.));
#735=DIRECTION('',(2.06514699521048E-16,1.,0.));
#736=DIRECTION('',(0.,0.,-1.));
#737=DIRECTION('',(0.,0.,-1.));
#738=DIRECTION('',(-2.06514699521048E-16,-1.,0.));
#739=DIRECTION('',(0.,0.,-1.));
#740=DIRECTION('',(-1.,0.,0.));
#741=DIRECTION('',(0.,0.,-1.));
#742=DIRECTION('',(0.,0.,1.));
#743=DIRECTION('',(1.,0.,0.));
#744=DIRECTION('',(0.,1.,0.));
#745=DIRECTION('',(0.,0.,1.));
#746=DIRECTION('',(0.,0.,-1.));
#747=DIRECTION('',(1.,0.,0.));
#748=DIRECTION('',(0.,0.,-1.));
#749=DIRECTION('',(-1.,0.,0.));
#750=DIRECTION('',(0.,0.,-1.));
#751=DIRECTION('',(0.,0.,1.));
#752=DIRECTION('',(1.,0.,0.));
#753=DIRECTION('',(1.,-2.06514699521048E-16,0.));
#754=DIRECTION('',(2.06514699521048E-16,1.,0.));
#755=DIRECTION('',(0.,0.,-1.));
#756=DIRECTION('',(-2.06514699521048E-16,-1.,0.));
#757=DIRECTION('',(0.,0.,-1.));
#758=DIRECTION('',(-1.,0.,0.));
#759=DIRECTION('',(0.,0.,-1.));
#760=DIRECTION('',(0.,0.,1.));
#761=DIRECTION('',(1.,0.,0.));
#762=DIRECTION('',(0.,1.,0.));
#763=DIRECTION('',(0.,0.,1.));
#764=DIRECTION('',(0.,0.,-1.));
#765=DIRECTION('',(1.,0.,0.));
#766=DIRECTION('',(0.,0.,-1.));
#767=DIRECTION('',(-1.,0.,0.));
#768=DIRECTION('',(0.,0.,1.));
#769=DIRECTION('',(1.,0.,0.));
#770=DIRECTION('',(1.,-2.06514699521048E-16,0.));
#771=DIRECTION('',(2.06514699521048E-16,1.,0.));
#772=DIRECTION('',(0.,0.,-1.));
#773=DIRECTION('',(-2.06514699521048E-16,-1.,0.));
#774=DIRECTION('',(0.,0.,-1.));
#775=DIRECTION('',(-2.06514699521048E-16,-1.,0.));
#776=DIRECTION('',(0.,0.,-1.));
#777=DIRECTION('',(-1.,0.,0.));
#778=DIRECTION('',(0.,0.,-1.));
#779=DIRECTION('',(0.,0.,-1.));
#780=DIRECTION('',(-1.,0.,0.));
#781=DIRECTION('',(0.,0.,1.));
#782=DIRECTION('',(1.,0.,0.));
#783=DIRECTION('',(0.,1.,0.));
#784=DIRECTION('',(0.,0.,1.));
#785=DIRECTION('',(0.,0.,-1.));
#786=DIRECTION('',(1.,0.,0.));
#787=DIRECTION('',(1.,0.,0.));
#788=DIRECTION('',(0.,0.,-1.));
#789=DIRECTION('',(-1.,0.,0.));
#790=DIRECTION('',(0.,0.,-1.));
#791=DIRECTION('',(0.,0.,-1.));
#792=DIRECTION('',(-1.,0.,0.));
#793=DIRECTION('',(0.,0.,1.));
#794=DIRECTION('',(1.,0.,0.));
#795=DIRECTION('',(1.,-2.06514699521048E-16,0.));
#796=DIRECTION('',(2.06514699521048E-16,1.,0.));
#797=DIRECTION('',(0.,0.,-1.));
#798=DIRECTION('',(-2.06514699521048E-16,-1.,0.));
#799=DIRECTION('',(-2.06514699521048E-16,-1.,0.));
#800=DIRECTION('',(0.,0.,-1.));
#801=DIRECTION('',(-1.,0.,0.));
#802=DIRECTION('',(0.,0.,-1.));
#803=DIRECTION('',(0.,0.,-1.));
#804=DIRECTION('',(-1.,0.,0.));
#805=DIRECTION('',(0.,0.,1.));
#806=DIRECTION('',(1.,0.,0.));
#807=DIRECTION('',(0.,1.,0.));
#808=DIRECTION('',(0.,0.,1.));
#809=DIRECTION('',(0.,0.,-1.));
#810=DIRECTION('',(1.,0.,0.));
#811=DIRECTION('',(1.,0.,0.));
#812=DIRECTION('',(0.,0.,-1.));
#813=DIRECTION('',(-1.,0.,0.));
#814=DIRECTION('',(0.,0.,1.));
#815=DIRECTION('',(1.,0.,0.));
#816=DIRECTION('',(0.,0.,1.));
#817=DIRECTION('',(1.,0.,0.));
#818=DIRECTION('',(0.,0.,-1.));
#819=DIRECTION('',(-1.,0.,0.));
#820=DIRECTION('',(0.,0.,-1.));
#821=DIRECTION('',(-1.,0.,0.));
#822=DIRECTION('',(0.,0.,1.));
#823=DIRECTION('',(1.,0.,0.));
#824=DIRECTION('',(0.,0.,1.));
#825=DIRECTION('',(1.,0.,0.));
#826=DIRECTION('',(-2.06514699521048E-16,-1.,0.));
#827=DIRECTION('',(1.,0.,0.));
#828=DIRECTION('',(-2.06514699521048E-16,-1.,0.));
#829=DIRECTION('',(1.,0.,0.));
#830=DIRECTION('',(0.,0.,1.));
#831=DIRECTION('',(1.,0.,0.));
#832=DIRECTION('',(0.,0.,1.));
#833=DIRECTION('',(1.,0.,0.));
#834=DIRECTION('',(1.,0.,0.));
#835=DIRECTION('',(0.,0.,-1.));
#836=DIRECTION('',(0.,-1.,0.));
#837=DIRECTION('',(0.,0.,-1.));
#838=DIRECTION('',(2.06514699521048E-16,1.,0.));
#839=DIRECTION('',(-1.,2.06514699521048E-16,0.));
#840=DIRECTION('',(0.,-1.,0.));
#841=DIRECTION('',(0.,0.,-1.));
#842=DIRECTION('',(1.,0.,0.));
#843=DIRECTION('',(0.,0.,-1.));
#844=DIRECTION('',(1.,0.,0.));
#845=DIRECTION('',(0.,0.,-1.));
#846=DIRECTION('',(0.,0.,1.));
#847=DIRECTION('',(1.,0.,0.));
#848=DIRECTION('',(1.,0.,0.));
#849=DIRECTION('',(0.,0.,-1.));
#850=DIRECTION('',(0.,0.,1.));
#851=DIRECTION('',(1.,0.,0.));
#852=DIRECTION('',(0.,-1.,0.));
#853=DIRECTION('',(0.,0.,-1.));
#854=DIRECTION('',(-1.,0.,0.));
#855=DIRECTION('',(0.,0.,1.));
#856=DIRECTION('',(1.,0.,0.));
#857=DIRECTION('',(0.,0.,-1.));
#858=DIRECTION('',(-2.06514699521048E-16,-1.,0.));
#859=DIRECTION('',(1.,-2.06514699521048E-16,0.));
#860=DIRECTION('',(0.,-1.,0.));
#861=DIRECTION('',(0.,0.,-1.));
#862=DIRECTION('',(0.,0.,1.));
#863=DIRECTION('',(1.,0.,0.));
#864=DIRECTION('',(0.989949493661167,0.14142135623731,0.));
#865=DIRECTION('',(0.14142135623731,-0.989949493661167,0.));
#866=DIRECTION('',(0.14142135623731,0.989949493661166,0.));
#867=DIRECTION('',(0.989949493661166,-0.14142135623731,0.));
#868=DIRECTION('',(-2.06514699521048E-16,-1.,0.));
#869=DIRECTION('',(1.,-2.06514699521048E-16,0.));
#870=DIRECTION('',(-0.141421356237309,0.989949493661167,0.));
#871=DIRECTION('',(0.989949493661167,0.141421356237309,0.));
#872=DIRECTION('',(-1.,0.,0.));
#873=DIRECTION('',(0.,0.,1.));
#874=DIRECTION('',(0.989949493661167,-0.14142135623731,0.));
#875=DIRECTION('',(-0.14142135623731,-0.989949493661167,0.));
#876=DIRECTION('',(-0.989949493661167,0.141421356237309,0.));
#877=DIRECTION('',(0.141421356237309,0.989949493661167,0.));
#878=DIRECTION('',(0.141421356237309,-0.989949493661167,0.));
#879=DIRECTION('',(-0.989949493661167,-0.141421356237309,0.));
#880=DIRECTION('',(1.,0.,0.));
#881=DIRECTION('',(0.,0.,-1.));
#882=DIRECTION('',(-0.989949493661167,-0.14142135623731,0.));
#883=DIRECTION('',(-0.14142135623731,0.989949493661167,0.));
#884=DIRECTION('',(2.06514699521048E-16,1.,0.));
#885=DIRECTION('',(-1.,2.06514699521048E-16,0.));
#886=DIRECTION('',(-0.14142135623731,-0.989949493661166,0.));
#887=DIRECTION('',(-0.989949493661166,0.14142135623731,0.));
#888=CARTESIAN_POINT('',(0.,0.,0.));
#889=CARTESIAN_POINT('',(2.16840434497101E-19,0.001,0.00013));
#890=CARTESIAN_POINT('',(2.16840434497101E-19,0.001,0.));
#891=CARTESIAN_POINT('',(-0.00125,0.001,0.));
#892=CARTESIAN_POINT('',(0.00125,0.001,0.));
#893=CARTESIAN_POINT('',(-0.00125,0.001,0.00013));
#894=CARTESIAN_POINT('',(-0.00125,0.001,0.00013));
#895=CARTESIAN_POINT('',(2.16840434497101E-19,0.001,0.00013));
#896=CARTESIAN_POINT('',(0.00125,0.001,0.00013));
#897=CARTESIAN_POINT('',(0.00125,0.001,0.00013));
#898=CARTESIAN_POINT('',(-0.00125,0.,0.00013));
#899=CARTESIAN_POINT('',(-0.00125,0.,0.));
#900=CARTESIAN_POINT('',(-0.00125,-0.001,0.));
#901=CARTESIAN_POINT('',(-0.00125,-0.001,0.00013));
#902=CARTESIAN_POINT('',(-0.00125,-0.001,0.00013));
#903=CARTESIAN_POINT('',(-0.00125,0.,0.00013));
#904=CARTESIAN_POINT('',(-2.16840434497101E-19,-0.001,0.00013));
#905=CARTESIAN_POINT('',(-2.16840434497101E-19,-0.001,0.));
#906=CARTESIAN_POINT('',(0.00125,-0.001,0.));
#907=CARTESIAN_POINT('',(0.00125,-0.001,0.00013));
#908=CARTESIAN_POINT('',(0.00125,-0.001,0.00013));
#909=CARTESIAN_POINT('',(-2.16840434497101E-19,-0.001,0.00013));
#910=CARTESIAN_POINT('',(0.00125,0.,0.00013));
#911=CARTESIAN_POINT('',(0.00125,0.,0.));
#912=CARTESIAN_POINT('',(0.00125,0.,0.00013));
#913=CARTESIAN_POINT('',(0.,0.,0.00013));
#914=CARTESIAN_POINT('',(0.000775,0.000525,0.00013));
#915=CARTESIAN_POINT('',(0.001125,0.000525,0.00013));
#916=CARTESIAN_POINT('',(0.000775,0.000875,0.00013));
#917=CARTESIAN_POINT('',(0.001125,-1.0842021724855E-19,0.00013));
#918=CARTESIAN_POINT('',(0.001125,-0.000525,0.00013));
#919=CARTESIAN_POINT('',(0.000775,-0.000525,0.00013));
#920=CARTESIAN_POINT('',(0.000775,-0.000875,0.00013));
#921=CARTESIAN_POINT('',(-1.0842021724855E-19,-0.000875,0.00013));
#922=CARTESIAN_POINT('',(-0.000775,-0.000875,0.00013));
#923=CARTESIAN_POINT('',(-0.000775,-0.000525,0.00013));
#924=CARTESIAN_POINT('',(-0.001125,-0.000525,0.00013));
#925=CARTESIAN_POINT('',(-0.001125,0.,0.00013));
#926=CARTESIAN_POINT('',(-0.001125,0.000525,0.00013));
#927=CARTESIAN_POINT('',(-0.000775,0.000525,0.00013));
#928=CARTESIAN_POINT('',(-0.000775,0.000875,0.00013));
#929=CARTESIAN_POINT('',(1.0842021724855E-19,0.000875,0.00013));
#930=CARTESIAN_POINT('',(0.,0.,0.));
#931=CARTESIAN_POINT('',(0.001125,-1.0842021724855E-19,0.0002));
#932=CARTESIAN_POINT('',(0.001125,-0.000525,0.0002));
#933=CARTESIAN_POINT('',(0.001125,-0.000525,0.0002));
#934=CARTESIAN_POINT('',(0.001125,0.000525,0.0002));
#935=CARTESIAN_POINT('',(0.001125,0.000525,0.0002));
#936=CARTESIAN_POINT('',(0.001125,-1.0842021724855E-19,0.0002));
#937=CARTESIAN_POINT('',(0.000775,0.000525,0.0002));
#938=CARTESIAN_POINT('',(0.000775,0.000875,0.0002));
#939=CARTESIAN_POINT('',(0.000775,0.000875,0.0002));
#940=CARTESIAN_POINT('',(0.000775,0.000525,0.0002));
#941=CARTESIAN_POINT('',(1.0842021724855E-19,0.000875,0.0002));
#942=CARTESIAN_POINT('',(-0.000775,0.000875,0.0002));
#943=CARTESIAN_POINT('',(-0.000775,0.000875,0.0002));
#944=CARTESIAN_POINT('',(1.0842021724855E-19,0.000875,0.0002));
#945=CARTESIAN_POINT('',(-0.000775,0.000525,0.0002));
#946=CARTESIAN_POINT('',(-0.001125,0.000525,0.0002));
#947=CARTESIAN_POINT('',(-0.001125,0.000525,0.0002));
#948=CARTESIAN_POINT('',(-0.000775,0.000525,0.0002));
#949=CARTESIAN_POINT('',(-0.001125,0.,0.0002));
#950=CARTESIAN_POINT('',(-0.001125,-0.000525,0.0002));
#951=CARTESIAN_POINT('',(-0.001125,-0.000525,0.0002));
#952=CARTESIAN_POINT('',(-0.001125,0.,0.0002));
#953=CARTESIAN_POINT('',(-0.000775,-0.000525,0.0002));
#954=CARTESIAN_POINT('',(-0.000775,-0.000875,0.0002));
#955=CARTESIAN_POINT('',(-0.000775,-0.000875,0.0002));
#956=CARTESIAN_POINT('',(-0.000775,-0.000525,0.0002));
#957=CARTESIAN_POINT('',(-1.0842021724855E-19,-0.000875,0.0002));
#958=CARTESIAN_POINT('',(0.000775,-0.000875,0.0002));
#959=CARTESIAN_POINT('',(0.000775,-0.000875,0.0002));
#960=CARTESIAN_POINT('',(-1.0842021724855E-19,-0.000875,0.0002));
#961=CARTESIAN_POINT('',(0.000775,-0.000525,0.0002));
#962=CARTESIAN_POINT('',(0.000775,-0.000525,0.0002));
#963=CARTESIAN_POINT('',(0.001075,-1.0842021724855E-19,0.00095));
#964=CARTESIAN_POINT('',(0.001075,0.000525,0.00095));
#965=CARTESIAN_POINT('',(0.001075,0.000525,0.0006));
#966=CARTESIAN_POINT('',(0.001075,0.000525,0.00025));
#967=CARTESIAN_POINT('',(0.001075,-1.0842021724855E-19,0.0006));
#968=CARTESIAN_POINT('',(0.001075,-0.000525,0.0006));
#969=CARTESIAN_POINT('',(0.001075,-0.000525,0.00095));
#970=CARTESIAN_POINT('',(0.001075,-0.000525,0.00025));
#971=CARTESIAN_POINT('',(0.001075,0.000525,0.00025));
#972=CARTESIAN_POINT('',(0.000775,0.000525,0.00095));
#973=CARTESIAN_POINT('',(0.000775,0.000825,0.00095));
#974=CARTESIAN_POINT('',(0.000775,0.000825,0.0006));
#975=CARTESIAN_POINT('',(0.000775,0.000825,0.00025));
#976=CARTESIAN_POINT('',(0.000775,0.000525,0.0006));
#977=CARTESIAN_POINT('',(0.000775,0.000525,0.00025));
#978=CARTESIAN_POINT('',(1.0842021724855E-19,0.000825,0.00095));
#979=CARTESIAN_POINT('',(-0.000775,0.000825,0.00095));
#980=CARTESIAN_POINT('',(-0.000775,0.000825,0.0006));
#981=CARTESIAN_POINT('',(-0.000775,0.000825,0.00025));
#982=CARTESIAN_POINT('',(1.0842021724855E-19,0.000825,0.0006));
#983=CARTESIAN_POINT('',(-0.000775,0.000825,0.00025));
#984=CARTESIAN_POINT('',(-0.000775,0.000525,0.00095));
#985=CARTESIAN_POINT('',(-0.001075,0.000525,0.00095));
#986=CARTESIAN_POINT('',(-0.001075,0.000525,0.0006));
#987=CARTESIAN_POINT('',(-0.001075,0.000525,0.00025));
#988=CARTESIAN_POINT('',(-0.000775,0.000525,0.0006));
#989=CARTESIAN_POINT('',(-0.000775,0.000525,0.00025));
#990=CARTESIAN_POINT('',(-0.001075,0.,0.00095));
#991=CARTESIAN_POINT('',(-0.001075,-0.000525,0.00095));
#992=CARTESIAN_POINT('',(-0.001075,-0.000525,0.0006));
#993=CARTESIAN_POINT('',(-0.001075,-0.000525,0.00025));
#994=CARTESIAN_POINT('',(-0.001075,0.000525,0.0006));
#995=CARTESIAN_POINT('',(-0.001075,0.,0.00025));
#996=CARTESIAN_POINT('',(-0.000775,-0.000525,0.00095));
#997=CARTESIAN_POINT('',(-0.000775,-0.000825,0.00095));
#998=CARTESIAN_POINT('',(-0.000775,-0.000825,0.0006));
#999=CARTESIAN_POINT('',(-0.000775,-0.000825,0.00025));
#1000=CARTESIAN_POINT('',(-0.000775,-0.000525,0.0006));
#1001=CARTESIAN_POINT('',(-0.000775,-0.000525,0.00025));
#1002=CARTESIAN_POINT('',(-1.0842021724855E-19,-0.000825,0.00095));
#1003=CARTESIAN_POINT('',(0.000775,-0.000825,0.00095));
#1004=CARTESIAN_POINT('',(0.000775,-0.000825,0.0006));
#1005=CARTESIAN_POINT('',(0.000775,-0.000825,0.00025));
#1006=CARTESIAN_POINT('',(-0.000775,-0.000825,0.0006));
#1007=CARTESIAN_POINT('',(-1.0842021724855E-19,-0.000825,0.00025));
#1008=CARTESIAN_POINT('',(-0.000425,0.000175,0.00095));
#1009=CARTESIAN_POINT('',(-0.000425,0.000175,0.0009));
#1010=CARTESIAN_POINT('',(-0.000275,0.000175,0.0009));
#1011=CARTESIAN_POINT('',(-0.000425,0.000175,0.00095));
#1012=CARTESIAN_POINT('',(-0.000275,0.000175,0.00095));
#1013=CARTESIAN_POINT('',(0.000775,-0.000525,0.00095));
#1014=CARTESIAN_POINT('',(0.000775,-0.000525,0.0006));
#1015=CARTESIAN_POINT('',(0.000775,-0.000525,0.00025));
#1016=CARTESIAN_POINT('',(0.,0.,0.00095));
#1017=CARTESIAN_POINT('',(0.000725,-1.4972315715276E-19,0.00095));
#1018=CARTESIAN_POINT('',(0.000725,-0.000475,0.00095));
#1019=CARTESIAN_POINT('',(0.000725,0.000475,0.00095));
#1020=CARTESIAN_POINT('',(0.,0.000475,0.00095));
#1021=CARTESIAN_POINT('',(-0.000725,0.000475,0.00095));
#1022=CARTESIAN_POINT('',(-0.000725,-0.000525,0.00095));
#1023=CARTESIAN_POINT('',(-0.000725,-0.000475,0.00095));
#1024=CARTESIAN_POINT('',(0.000775,-0.000475,0.00095));
#1025=CARTESIAN_POINT('',(0.,0.,0.0009));
#1026=CARTESIAN_POINT('',(0.000775,-0.000525,0.00025));
#1027=CARTESIAN_POINT('',(0.000775,-0.000875,0.00025));
#1028=CARTESIAN_POINT('',(0.001125,-0.000525,0.00025));
#1029=CARTESIAN_POINT('',(0.001125,-2.32329036961179E-19,0.00025));
#1030=CARTESIAN_POINT('',(0.001125,0.000525,0.00025));
#1031=CARTESIAN_POINT('',(-1.0842021724855E-19,-0.000875,0.00025));
#1032=CARTESIAN_POINT('',(-0.000775,-0.000875,0.00025));
#1033=CARTESIAN_POINT('',(0.000775,0.000525,0.00025));
#1034=CARTESIAN_POINT('',(0.000775,0.000875,0.00025));
#1035=CARTESIAN_POINT('',(-0.000775,-0.000525,0.00025));
#1036=CARTESIAN_POINT('',(-0.001125,-0.000525,0.00025));
#1037=CARTESIAN_POINT('',(0.,0.000875,0.00025));
#1038=CARTESIAN_POINT('',(-0.000775,0.000875,0.00025));
#1039=CARTESIAN_POINT('',(-0.001125,1.03257349760524E-20,0.00025));
#1040=CARTESIAN_POINT('',(-0.001125,0.000525,0.00025));
#1041=CARTESIAN_POINT('',(-0.000775,0.000525,0.00025));
#1042=CARTESIAN_POINT('',(0.001075,-0.000525,0.0006));
#1043=CARTESIAN_POINT('',(0.001075,-0.000825,0.0006));
#1044=CARTESIAN_POINT('',(0.000775,-0.000825,0.0006));
#1045=CARTESIAN_POINT('',(0.001075,-0.000524999986910904,0.000645821000662056));
#1046=CARTESIAN_POINT('',(0.00107499794871052,-0.00082499794871052,0.000685124681947332));
#1047=CARTESIAN_POINT('',(0.000774999986910904,-0.000825,0.000645821000662056));
#1048=CARTESIAN_POINT('',(0.00105675286310795,-0.000522393272107868,0.000737362349352411));
#1049=CARTESIAN_POINT('',(0.00102465982138687,-0.000774659821386864,0.000838306976607951));
#1050=CARTESIAN_POINT('',(0.000772393272107868,-0.00080675286310795,0.000737362349352411));
#1051=CARTESIAN_POINT('',(0.000953098375491857,-0.000507585478643369,0.000893059862536076));
#1052=CARTESIAN_POINT('',(0.000868689751096325,-0.000618689751096363,0.000950484785449632));
#1053=CARTESIAN_POINT('',(0.000757585478643369,-0.000703098375491859,0.000893059862536077));
#1054=CARTESIAN_POINT('',(0.000816635893954504,-0.000488090841993498,0.00095));
#1055=CARTESIAN_POINT('',(0.000777360762097261,-0.000527360762097106,0.000950000129612224));
#1056=CARTESIAN_POINT('',(0.0007380908419935,-0.000566635893954486,0.00095));
#1057=CARTESIAN_POINT('',(0.000725,-0.000475,0.00095));
#1058=CARTESIAN_POINT('',(0.000725,-0.000475,0.00095));
#1059=CARTESIAN_POINT('',(0.000725,-0.000474999999999999,0.00095));
#1060=CARTESIAN_POINT('',(0.000725,-0.000475,0.0006));
#1061=CARTESIAN_POINT('',(0.000725,-0.000475,0.0006));
#1062=CARTESIAN_POINT('',(0.000725,-3.61400724161835E-20,0.0006));
#1063=CARTESIAN_POINT('',(0.000725,0.000475,0.0006));
#1064=CARTESIAN_POINT('',(0.,-0.000475,0.0006));
#1065=CARTESIAN_POINT('',(-0.000725,-0.000475,0.0006));
#1066=CARTESIAN_POINT('',(0.000775,0.000825,0.0006));
#1067=CARTESIAN_POINT('',(0.001075,0.000825,0.0006));
#1068=CARTESIAN_POINT('',(0.001075,0.000525,0.0006));
#1069=CARTESIAN_POINT('',(0.000774999986910903,0.000825,0.000645821000662055));
#1070=CARTESIAN_POINT('',(0.00107499794871052,0.000824997948710518,0.000685124681947331));
#1071=CARTESIAN_POINT('',(0.001075,0.000524999986910902,0.000645821000662055));
#1072=CARTESIAN_POINT('',(0.000772393272107868,0.00080675286310795,0.000737362349352413));
#1073=CARTESIAN_POINT('',(0.00102465982138686,0.000774659821386868,0.000838306976607483));
#1074=CARTESIAN_POINT('',(0.00105675286310795,0.000522393272107868,0.000737362349352413));
#1075=CARTESIAN_POINT('',(0.000757585478643369,0.000703098375491856,0.000893059862536077));
#1076=CARTESIAN_POINT('',(0.000868689751096372,0.000618689751096341,0.000950484785451563));
#1077=CARTESIAN_POINT('',(0.000953098375491856,0.000507585478643368,0.000893059862536077));
#1078=CARTESIAN_POINT('',(0.000738090841993499,0.000566635893954491,0.00095));
#1079=CARTESIAN_POINT('',(0.000777360762097064,0.000527360762097188,0.000950000129604486));
#1080=CARTESIAN_POINT('',(0.000816635893954492,0.000488090841993499,0.00095));
#1081=CARTESIAN_POINT('',(0.000725,0.000474999999999999,0.00095));
#1082=CARTESIAN_POINT('',(0.000724999999999999,0.000475,0.00095));
#1083=CARTESIAN_POINT('',(0.000724999999999999,0.000475,0.00095));
#1084=CARTESIAN_POINT('',(0.000725,0.000475,0.0006));
#1085=CARTESIAN_POINT('',(-0.000775,-0.000825,0.0006));
#1086=CARTESIAN_POINT('',(-0.001075,-0.000825,0.0006));
#1087=CARTESIAN_POINT('',(-0.001075,-0.000525,0.0006));
#1088=CARTESIAN_POINT('',(-0.000774999986910903,-0.000825,0.000645821000662056));
#1089=CARTESIAN_POINT('',(-0.00107499794871052,-0.000824997948710519,0.000685124681947332));
#1090=CARTESIAN_POINT('',(-0.001075,-0.000524999986910903,0.000645821000662056));
#1091=CARTESIAN_POINT('',(-0.000772393272107868,-0.000806752863107949,0.000737362349352412));
#1092=CARTESIAN_POINT('',(-0.00102465982138687,-0.000774659821386864,0.000838306976607482));
#1093=CARTESIAN_POINT('',(-0.00105675286310795,-0.000522393272107868,0.000737362349352412));
#1094=CARTESIAN_POINT('',(-0.000757585478643368,-0.000703098375491859,0.000893059862536077));
#1095=CARTESIAN_POINT('',(-0.000868689751096354,-0.000618689751096358,0.000950484785451563));
#1096=CARTESIAN_POINT('',(-0.000953098375491854,-0.000507585478643369,0.000893059862536077));
#1097=CARTESIAN_POINT('',(-0.0007380908419935,-0.000566635893954486,0.00095));
#1098=CARTESIAN_POINT('',(-0.000777360762097135,-0.000527360762097122,0.000950000129604485));
#1099=CARTESIAN_POINT('',(-0.000816635893954504,-0.000488090841993498,0.00095));
#1100=CARTESIAN_POINT('',(-0.000725,-0.000474999999999999,0.00095));
#1101=CARTESIAN_POINT('',(-0.000724999999999999,-0.000475,0.00095));
#1102=CARTESIAN_POINT('',(-0.000724999999999999,-0.000475,0.00095));
#1103=CARTESIAN_POINT('',(-0.000725,-0.000475,0.0006));
#1104=CARTESIAN_POINT('',(1.0842021724855E-19,0.000475,0.0006));
#1105=CARTESIAN_POINT('',(-0.000725,0.000475,0.0006));
#1106=CARTESIAN_POINT('',(-0.000725,1.4972315715276E-19,0.0006));
#1107=CARTESIAN_POINT('',(-0.000725,0.000475,0.0006));
#1108=CARTESIAN_POINT('',(-0.001075,0.000525,0.0006));
#1109=CARTESIAN_POINT('',(-0.001075,0.000825,0.0006));
#1110=CARTESIAN_POINT('',(-0.000775,0.000825,0.0006));
#1111=CARTESIAN_POINT('',(-0.001075,0.000524999986910904,0.000645821000662056));
#1112=CARTESIAN_POINT('',(-0.00107499794871052,0.00082499794871052,0.000685124681947332));
#1113=CARTESIAN_POINT('',(-0.000774999986910904,0.000825,0.000645821000662056));
#1114=CARTESIAN_POINT('',(-0.00105675286310795,0.000522393272107868,0.000737362349352411));
#1115=CARTESIAN_POINT('',(-0.00102465982138687,0.000774659821386864,0.000838306976607951));
#1116=CARTESIAN_POINT('',(-0.000772393272107868,0.00080675286310795,0.000737362349352411));
#1117=CARTESIAN_POINT('',(-0.000953098375491857,0.000507585478643369,0.000893059862536076));
#1118=CARTESIAN_POINT('',(-0.000868689751096325,0.000618689751096363,0.000950484785449632));
#1119=CARTESIAN_POINT('',(-0.000757585478643369,0.000703098375491859,0.000893059862536077));
#1120=CARTESIAN_POINT('',(-0.000816635893954504,0.000488090841993498,0.00095));
#1121=CARTESIAN_POINT('',(-0.000777360762097261,0.000527360762097106,0.000950000129612224));
#1122=CARTESIAN_POINT('',(-0.0007380908419935,0.000566635893954486,0.00095));
#1123=CARTESIAN_POINT('',(-0.000725,0.000475,0.00095));
#1124=CARTESIAN_POINT('',(-0.000725,0.000475,0.00095));
#1125=CARTESIAN_POINT('',(-0.000725,0.000474999999999999,0.00095));
#1126=MECHANICAL_DESIGN_GEOMETRIC_PRESENTATION_REPRESENTATION('',(#606,
#28),#1127);
#1127=(
GEOMETRIC_REPRESENTATION_CONTEXT(3)
GLOBAL_UNCERTAINTY_ASSIGNED_CONTEXT((#1128))
GLOBAL_UNIT_ASSIGNED_CONTEXT((#1131,#1130,#1129))
REPRESENTATION_CONTEXT('bmp280','TOP_LEVEL_ASSEMBLY_PART')
);
#1128=UNCERTAINTY_MEASURE_WITH_UNIT(LENGTH_MEASURE(5.E-6),#1131,
'DISTANCE_ACCURACY_VALUE','Maximum Tolerance applied to model');
#1129=(
NAMED_UNIT(*)
SI_UNIT($,.STERADIAN.)
SOLID_ANGLE_UNIT()
);
#1130=(
NAMED_UNIT(*)
PLANE_ANGLE_UNIT()
SI_UNIT($,.RADIAN.)
);
#1131=(
LENGTH_UNIT()
NAMED_UNIT(*)
SI_UNIT($,.METRE.)
);
#1132=PRODUCT_DEFINITION_SHAPE('','',#1133);
#1133=PRODUCT_DEFINITION('','',#1135,#1134);
#1134=PRODUCT_DEFINITION_CONTEXT('',#1141,'design');
#1135=PRODUCT_DEFINITION_FORMATION_WITH_SPECIFIED_SOURCE('','',#1137,
 .NOT_KNOWN.);
#1136=PRODUCT_RELATED_PRODUCT_CATEGORY('','',(#1137));
#1137=PRODUCT('bmp280','bmp280','bmp280',(#1139));
#1138=PRODUCT_CATEGORY('','');
#1139=PRODUCT_CONTEXT('',#1141,'mechanical');
#1140=APPLICATION_PROTOCOL_DEFINITION('international standard',
'ap242_managed_model_based_3d_engineering',2011,#1141);
#1141=APPLICATION_CONTEXT('managed model based 3d engineering');
ENDSEC;
END-ISO-10303-21;
